<svg xmlns="http://www.w3.org/2000/svg"  viewBox="0 0 24 24" width="48px" height="48px"><path d="M 3.5039062 3 C 3.4171563 2.99925 3.3294531 3.0204531 3.2519531 3.0644531 C 3.0959531 3.1544531 3 3.32 3 3.5 L 3 20.5 C 3 20.68 3.0959531 20.845547 3.2519531 20.935547 C 3.3289531 20.979547 3.414 21 3.5 21 C 3.588 21 3.6759063 20.977641 3.7539062 20.931641 L 17 13.119141 L 17 20.5 C 17 20.776 17.224 21 17.5 21 L 19.5 21 C 19.776 21 20 20.776 20 20.5 L 20 3.5 C 20 3.224 19.776 3 19.5 3 L 17.5 3 C 17.224 3 17 3.224 17 3.5 L 17 10.880859 L 3.7539062 3.0683594 C 3.6764063 3.0233594 3.5906562 3.00075 3.5039062 3 z"/></svg>